<svg xmlns="http://www.w3.org/2000/svg" viewBox="0 0 820 520" role="img" aria-label="软件 3.0 业务">
  <rect width="820" height="520" rx="34" fill="#07101a"/>
  <rect x="84" y="110" width="652" height="318" rx="28" fill="#f8fbff"/>
  <rect x="114" y="148" width="220" height="242" rx="18" fill="#0a1c31"/>
  <rect x="366" y="148" width="314" height="54" rx="14" fill="#dceeff"/>
  <rect x="366" y="226" width="142" height="164" rx="18" fill="#eaf4ff"/>
  <rect x="538" y="226" width="142" height="164" rx="18" fill="#eaf4ff"/>
  <path d="M147 206h154M147 252h128M147 298h170M147 344h112" stroke="#5fc8ff" stroke-width="14" stroke-linecap="round"/>
  <path d="M404 176h216M404 280h66M404 322h84M574 280h66M574 322h74" stroke="#0477df" stroke-width="12" stroke-linecap="round"/>
  <circle cx="662" cy="84" r="35" fill="#0077e6"/>
  <path d="M648 84h28M662 70v28" stroke="#fff" stroke-width="7" stroke-linecap="round"/>
  <text x="74" y="72" fill="#fff" font-family="Arial, sans-serif" font-size="38" font-weight="800">Software 3.0 Stack</text>
  <text x="74" y="470" fill="#8aa4c2" font-family="Arial, sans-serif" font-size="18">Workflow · Data · Mobile · AI Integration</text>
</svg>
